<svg width="14" height="14" viewBox="0 0 14 14" fill="none" xmlns="http://www.w3.org/2000/svg">
<path fill-rule="evenodd" clip-rule="evenodd" d="M4.60296 0.969353C3.56591 1.01618 2.66704 1.2699 1.94123 1.99314C1.21288 2.72019 0.962482 3.62323 0.915573 4.65021C0.886414 5.2912 0.715904 10.1337 1.21035 11.4037C1.54378 12.2604 2.20048 12.9192 3.06448 13.2539C3.46764 13.4108 3.92786 13.5171 4.60296 13.5481C10.2478 13.8037 12.3403 13.6645 13.2227 11.4037C13.3793 11.0012 13.487 10.5411 13.5168 9.86722C13.7748 4.204 13.475 2.97646 12.4912 1.99314C11.7109 1.21421 10.793 0.683977 4.60296 0.969353ZM4.65493 12.4091C4.03688 12.3813 3.70155 12.2782 3.47779 12.1915C2.91489 11.9726 2.49208 11.5512 2.27465 10.9912C1.89812 10.0263 2.023 5.44317 2.05659 4.70157C2.08956 3.97516 2.23662 3.31126 2.74881 2.79873C3.38271 2.16596 4.2017 1.85585 9.7781 2.10769C10.5058 2.1406 11.1708 2.28746 11.6842 2.79873C12.3181 3.43149 12.6326 4.25735 12.3765 9.81617C12.3486 10.4331 12.2452 10.7679 12.1584 10.9912C11.5847 12.4624 10.2649 12.6666 4.65493 12.4091ZM9.83959 3.88073C9.83959 4.29962 10.18 4.64025 10.6003 4.64025C11.0206 4.64025 11.3616 4.29962 11.3616 3.88073C11.3616 3.46185 11.0206 3.12153 10.6003 3.12153C10.18 3.12153 9.83959 3.46185 9.83959 3.88073ZM3.96145 7.2584C3.96145 9.05292 5.41879 10.5078 7.21653 10.5078C9.01426 10.5078 10.4716 9.05292 10.4716 7.2584C10.4716 5.46389 9.01426 4.00991 7.21653 4.00991C5.41879 4.00991 3.96145 5.46389 3.96145 7.2584ZM5.10374 7.2584C5.10374 6.09412 6.04952 5.1495 7.21653 5.1495C8.38353 5.1495 9.32931 6.09412 9.32931 7.2584C9.32931 8.42332 8.38353 9.36824 7.21653 9.36824C6.04952 9.36824 5.10374 8.42332 5.10374 7.2584Z" fill="#222222"/>
</svg>
