<svg width="12" height="12" viewBox="0 0 12 12" fill="none" xmlns="http://www.w3.org/2000/svg">
<path fill-rule="evenodd" clip-rule="evenodd" d="M11.4604 11.5786H9.33688V7.86038C9.33688 6.84038 8.88723 6.2713 8.08083 6.2713C7.2033 6.2713 6.68251 6.86429 6.68251 7.86038V11.5786H4.55901V4.67236H6.68251V5.44901C6.68251 5.44901 7.34875 4.27911 8.85006 4.27911C10.3519 4.27911 11.4604 5.19623 11.4604 7.09386V11.5786ZM2.13929 3.56784C1.42314 3.56784 0.842896 2.98244 0.842896 2.26047C0.842896 1.53903 1.42314 0.953613 2.13929 0.953613C2.85491 0.953613 3.43515 1.53903 3.43515 2.26047C3.43568 2.98244 2.85491 3.56784 2.13929 3.56784ZM0.842896 11.5786H3.49726V4.67236H0.842896V11.5786Z" fill="#222222"/>
</svg>
