<svg width="28" height="29" viewBox="0 0 28 29" fill="none" xmlns="http://www.w3.org/2000/svg">
<g clip-path="url(#clip0_62_35)">
<path d="M14 0.266113C8.20138 0.266113 3.5 4.96749 3.5 10.7661C3.5 13.0494 4.24856 15.1446 5.49281 16.8605C5.51513 16.9016 5.51862 16.9476 5.544 16.9869L12.544 27.4869C12.8686 27.9739 13.4155 28.2661 14 28.2661C14.5845 28.2661 15.1314 27.9739 15.456 27.4869L22.456 16.9869C22.4818 16.9476 22.4849 16.9016 22.5072 16.8605C23.7514 15.1446 24.5 13.0494 24.5 10.7661C24.5 4.96749 19.7986 0.266113 14 0.266113ZM14 14.2661C12.0671 14.2661 10.5 12.699 10.5 10.7661C10.5 8.83324 12.0671 7.26611 14 7.26611C15.9329 7.26611 17.5 8.83324 17.5 10.7661C17.5 12.699 15.9329 14.2661 14 14.2661Z" fill="#222222"/>
</g>
<defs>
<clipPath id="clip0_62_35">
<rect width="28" height="28" fill="white" transform="translate(0 0.266113)"/>
</clipPath>
</defs>
</svg>
