<svg width="28" height="29" viewBox="0 0 28 29" fill="none" xmlns="http://www.w3.org/2000/svg">
<path d="M24.7346 4.84229H3.26539C1.46169 4.84229 0 6.30397 0 8.10718V21.4251C0 23.2283 1.46169 24.69 3.26539 24.69H24.7346C26.5378 24.69 28 23.2283 28 21.4251V8.10718C28 6.30397 26.5379 4.84229 24.7346 4.84229ZM26.4409 22.3048L25.8193 23.0409L17.1148 15.9368L15.7668 17.2195C14.7678 18.1369 13.2323 18.1369 12.2332 17.2195L10.8852 15.9368L2.18072 23.0409L1.55914 22.3048L9.73164 14.839L1.5056 7.10815L1.99194 6.46377L14 15.5624L26.008 6.46377L26.494 7.10815L18.2684 14.839L26.4409 22.3048Z" fill="#222222"/>
</svg>
