<svg width="28" height="29" viewBox="0 0 28 29" fill="none" xmlns="http://www.w3.org/2000/svg">
<path d="M11.7104 6.96827L12.4675 8.32502C13.1509 9.54942 12.8766 11.1556 11.8003 12.2318C11.8003 12.2318 10.495 13.5373 12.8618 15.9042C15.2278 18.2702 16.5341 16.9656 16.5341 16.9656C17.6103 15.8893 19.2165 15.6151 20.4409 16.2984L21.7976 17.0555C23.6465 18.0873 23.8648 20.6801 22.2398 22.3053C21.2633 23.2818 20.067 24.0417 18.7446 24.0917C16.5184 24.1762 12.7379 23.6128 8.94549 19.8204C5.15316 16.0281 4.58975 12.2475 4.67415 10.0213C4.72428 8.69894 5.48411 7.50268 6.46062 6.52617C8.08573 4.90107 10.6785 5.11942 11.7104 6.96827Z" fill="#222222"/>
<path d="M15.4696 2.95929C15.5468 2.48225 15.9977 2.15866 16.4748 2.23588C16.5043 2.24154 16.5994 2.25929 16.6491 2.27038C16.7487 2.29255 16.8875 2.32668 17.0607 2.37711C17.4069 2.47796 17.8906 2.64411 18.4712 2.91026C19.6335 3.44314 21.1803 4.37531 22.7854 5.98041C24.3905 7.58551 25.3226 9.13229 25.8555 10.2946C26.1217 10.8752 26.2878 11.3589 26.3886 11.7051C26.439 11.8783 26.4732 12.0171 26.4954 12.1167C26.5065 12.1665 26.5146 12.2064 26.5202 12.2359L26.527 12.2723C26.6041 12.7493 26.2835 13.219 25.8065 13.2963C25.3308 13.3733 24.8827 13.0512 24.8036 12.5764C24.8011 12.5636 24.7944 12.5294 24.7873 12.4971C24.7728 12.4325 24.7479 12.33 24.7085 12.1945C24.6295 11.9234 24.4924 11.5206 24.2647 11.0239C23.8099 10.0319 22.9921 8.66203 21.5479 7.21785C20.1038 5.77368 18.7339 4.95586 17.7419 4.50105C17.2452 4.27337 16.8424 4.13625 16.5712 4.05729C16.4358 4.01782 16.2655 3.97873 16.2008 3.96434C15.726 3.88521 15.3926 3.43497 15.4696 2.95929Z" fill="#222222"/>
<path fill-rule="evenodd" clip-rule="evenodd" d="M15.7331 6.98361C15.8659 6.51895 16.3501 6.24989 16.8148 6.38264L16.5745 7.22399C16.8148 6.38264 16.8148 6.38264 16.8148 6.38264L16.8166 6.38314L16.8183 6.38365L16.8222 6.38478L16.8313 6.38749L16.8544 6.39467C16.8719 6.4003 16.8939 6.40762 16.9201 6.41692C16.9724 6.43552 17.0417 6.46196 17.1267 6.49836C17.2967 6.5712 17.5288 6.68369 17.8142 6.85252C18.3852 7.19048 19.1647 7.75186 20.0806 8.66766C20.9964 9.58347 21.5577 10.363 21.8957 10.9341C22.0645 11.2193 22.1769 11.4516 22.2499 11.6215C22.2863 11.7065 22.3127 11.7757 22.3313 11.8281C22.3406 11.8543 22.3479 11.8763 22.3536 11.8939L22.3607 11.917L22.3634 11.926L22.3645 11.9299L22.365 11.9317C22.365 11.9317 22.3656 11.9334 21.5242 12.1737L22.3656 11.9334C22.4984 12.398 22.2292 12.8823 21.7646 13.015C21.3039 13.1466 20.8238 12.8833 20.6863 12.4259L20.682 12.4133C20.6758 12.3958 20.663 12.3613 20.6414 12.3109C20.5982 12.2102 20.5199 12.0454 20.3897 11.8254C20.1296 11.3858 19.6597 10.7217 18.8431 9.90509C18.0265 9.08848 17.3623 8.61867 16.9229 8.35854C16.7028 8.22831 16.5381 8.15003 16.4373 8.10686C16.3869 8.08527 16.3524 8.07239 16.3349 8.06617L16.3223 8.06186C15.8649 7.92434 15.6015 7.44431 15.7331 6.98361Z" fill="#222222"/>
</svg>
