<svg width="14" height="12" viewBox="0 0 14 12" fill="none" xmlns="http://www.w3.org/2000/svg">
<path fill-rule="evenodd" clip-rule="evenodd" d="M4.74746 11.5786C9.55534 11.5786 12.1851 7.4903 12.1851 3.94536C12.1851 3.82898 12.1851 3.71348 12.1775 3.59841C12.689 3.2192 13.1305 2.74837 13.4815 2.20963C13.005 2.4267 12.4986 2.56905 11.9806 2.63181C12.5259 2.29641 12.9343 1.76947 13.1299 1.1477C12.6164 1.46022 12.0552 1.68079 11.4697 1.79913C10.4797 0.719038 8.824 0.666708 7.77094 1.68272C7.09247 2.33784 6.80388 3.3146 7.01475 4.24627C4.91309 4.13774 2.95477 3.11913 1.62714 1.44342C0.933385 2.66931 1.28823 4.23697 2.43684 5.02415C2.02085 5.01173 1.61376 4.89678 1.25 4.68888V4.72292C1.25064 5.99981 2.12787 7.09928 3.3472 7.35229C2.96242 7.46017 2.55852 7.47582 2.16737 7.39801C2.50947 8.49118 3.49118 9.23992 4.60922 9.2615C3.68357 10.0081 2.54005 10.4136 1.36276 10.4123C1.15508 10.4116 0.947401 10.3992 0.740356 10.3737C1.93612 11.1609 3.32682 11.5786 4.74746 11.5767" fill="#222222"/>
</svg>
